<?xml version="1.0" encoding="utf-8"?>
<!-- Generator: Adobe Illustrator 27.5.0, SVG Export Plug-In . SVG Version: 6.00 Build 0)  -->
<svg version="1.1" xmlns="http://www.w3.org/2000/svg" xmlns:xlink="http://www.w3.org/1999/xlink" x="0px" y="0px"
	 viewBox="0 0 3710 3710" style="enable-background:new 0 0 3710 3710;" xml:space="preserve">
<g id="Background">
	<g>
		<g>
			<rect style="fill:#FFFFFF;" width="3710" height="3710"/>
		</g>
	</g>
</g>
<g id="Illustration">
	<g>
		<path style="fill:#F4F7FA;" d="M2575.234,560.23c97.844,140.07-16.881,367.157,128.304,472.501
			c141.326,102.545,314.941-65.54,448.131,22.73c197.581,130.943,161.499,730.114-127.375,1102.391
			c-86.874,111.956-159.463,155.517-191.611,282.134c-69.034,271.88,173.584,433.611,127.414,568.078
			c-103.958,302.771-1702.756,556.831-2344.265-353.095c-299.611-424.974-344.439-1038.639-76.746-1504.721
			C1022.803,308.045,2355.688,245.94,2575.234,560.23z"/>
		<g>
			<linearGradient id="SVGID_1_" gradientUnits="userSpaceOnUse" x1="1788.0634" y1="2278.6187" x2="1754.6016" y2="3524.1545">
				<stop  offset="0" style="stop-color:#AA80F9"/>
				<stop  offset="0.9964" style="stop-color:#6165D7"/>
			</linearGradient>
			<path style="fill:url(#SVGID_1_);" d="M943.836,2371.972c-48.162-238.623-187.141-391.347-294.333-382.054
				c-130.012,11.271-237.541,262.996-192.259,448.605c35.174,144.175,137.545,145.966,225.49,329.926
				c101.116,211.511,14.293,310.61,90.195,413.002c124.268,167.641,430.769,4.181,985.034-2.375
				c619.374-7.326,913.362,187.918,1065.733,7.121c94.888-112.591,8.115-220.629,151.91-512.692
				c100.759-204.653,127.517-219.078,144.787-303.816c30.732-150.813-47.741-351.747-188.405-428.776
				c-182.399-99.885-489.464-2.432-640.832,288.374C1842.05,2276.849,1392.942,2324.41,943.836,2371.972z"/>
			
				<linearGradient id="SVGID_00000070109143127215923210000018313725592497949099_" gradientUnits="userSpaceOnUse" x1="446.7201" y1="2606.9478" x2="3122.1721" y2="2606.9478">
				<stop  offset="0" style="stop-color:#AA80F9"/>
				<stop  offset="0.9964" style="stop-color:#6165D7"/>
			</linearGradient>
			<path style="opacity:0.3;fill:url(#SVGID_00000070109143127215923210000018313725592497949099_);" d="M2931.248,1971.252
				c-130.859-83.538,111.031,92.625,58.518,434.889c-5.589,36.428-73.401,380.953-302.63,452.166
				c-205.637,63.883-307.449-165.167-537.614-124.613c-265.154,46.719-277.593,376.704-562.536,420.122
				c-166.532,25.375-316.856-63.782-377.398-99.69c-144.189-85.52-129-147.998-313.312-316.872
				c-202.348-185.399-284.587-168.671-373.838-302.631c-25.587-38.405-52.272-90.007-70.385-159.158
				c-8.155,55.08-7.361,111.607,5.191,163.057c35.174,144.175,137.545,145.966,225.49,329.926
				c101.116,211.511,14.293,310.61,90.195,413.002c124.268,167.641,430.769,4.181,985.034-2.375
				c619.373-7.326,913.362,187.919,1065.733,7.121c94.888-112.591,8.115-220.63,151.91-512.692
				c77.528-157.467,133.83-189.186,144.785-303.816C3135.897,2207.441,3048.29,2007.384,2931.248,1971.252z"/>
		</g>
		<g>
			
				<linearGradient id="SVGID_00000080195449212051992730000010625827770583682708_" gradientUnits="userSpaceOnUse" x1="2245.2192" y1="338.9388" x2="1403.1564" y2="1721.5829">
				<stop  offset="0" style="stop-color:#FF9085"/>
				<stop  offset="1" style="stop-color:#FB6FBB"/>
			</linearGradient>
			<path style="fill:url(#SVGID_00000080195449212051992730000010625827770583682708_);" d="M1184.871,1648.452
				c25.239-46.453,53.897-117.658,35.604-192.259c-25.726-104.911-122.027-125.69-171.925-200.665
				c-105.795-158.965,27.761-515.329,269.803-697.488c340.499-256.256,768.135-75.708,804.509-59.645
				c175.736,77.605,520.831,302.49,478.175,601.378c-39.698,278.154-392.679,481.916-631.302,436.377
				c-166.193-31.716-276.992-184.377-403.906-129.803c-51.995,22.359-55.77,57.603-135.294,121.052
				C1341.927,1598.097,1250.1,1631.345,1184.871,1648.452z"/>
			<path style="fill:#FFFFFF;" d="M2232.873,906.233c25.318-39.392,13.935-93.395-5.653-132.56
				c-25.804-51.593-70.854-91.734-114.791-127.707c-4.674-3.826-9.398-7.47-14.156-11.016
				c-15.175-29.531-37.213-52.979-71.647-60.951c-19.683-4.558-40.634-4.439-61.475-1.438c-3.685-0.909-7.402-1.773-11.152-2.594
				c-67.814-14.837-138.34-24.098-207.659-27.393c-72.671-3.455-145.803,2.491-215.514,24.141
				c-44.216,13.731-88.76,34.733-114.169,75.319c-24.703,39.458-29.936,91.234-13.423,134.718
				c-50.533,42.524-94.198,93.755-118.962,152.241c-17.672,41.738-24.516,90.531-5.17,132.972
				c9.92,21.768,25.715,38.598,44.328,53.249c26.382,20.766,57.633,44.472,28.711,79.601
				c-28.794,34.972-86.193,48.518-91.076,101.195c-3.935,42.474,37.277,72.041,69.516,90.788c2.303,1.339,4.365-2.199,2.085-3.565
				c-26.756-16.021-58.817-38.231-65.403-71.104c-8.024-40.06,30.649-67.567,59.223-86.799c31.6-21.27,64.697-56.173,31.607-92.029
				c-19.983-21.654-46.42-34.171-62.766-59.759c-15.86-24.824-21.112-54.364-18.064-83.429
				c6.745-64.313,48.438-119.498,91.705-164.786c12.424-13.003,25.547-25.352,39.18-37.153c0.294,0.611,0.56,1.238,0.86,1.844
				c-15.324,12.424-29.328,26.092-41.265,41.35c-23.552,30.1-37.61,71.076-20.012,107.567
				c16.022,33.221,49.744,53.648,83.068,69.182c-10.188,42.199-13.593,87.071-1.824,129.138
				c12.532,44.786,42.842,80.938,80.809,106.901c78.209,53.483,182.248,60.169,272.797,41.817
				c41.664-8.444,82.065-23.214,118.166-44.819c19.167,21.014,42.098,40.421,66.572,45.37c11.536,2.333,29.09,1.739,31.536-12.506
				c2.444-14.223-12.272-34.345-20.15-48.132c25.499,15.805,53.704,26.549,84.616,28.89c75.372,5.707,127.25-43.041,145.787-112.792
				c17.643-66.393,30.446-150.76,11.903-221.337C2225.4,916.35,2229.419,911.606,2232.873,906.233z M2064.703,612.318
				c0.192,0.205,0.364,0.426,0.556,0.632c-17.991-10.612-36.682-19.515-56.256-26.855
				C2029.81,588.417,2049.319,596.015,2064.703,612.318z M2195.682,895.77c2.969,6.8,5.497,13.81,7.62,21.001
				c-4.852,3.774-10.093,7.038-15.62,9.872c-1.68-7.663-3.666-15.118-5.71-22.175
				C2186.573,901.645,2191.145,898.752,2195.682,895.77z M2175.596,931.953c-24.291,9.283-52.439,11.986-78.37,12.596
				c25.563-8.471,49.906-19.783,73.341-33.292C2172.56,918.141,2174.259,925.055,2175.596,931.953z M2175.588,986.176
				c-13.615,52.826-91.396,52.435-134.39,62.305c-14.61,3.354-29.659,8.056-43.616,14.612
				c-20.332-21.169-56.568-26.808-83.521-30.567c-14.85-2.071-29.683-3.867-44.353-5.942c25.814-10.061,50.561-23.028,71.57-39.853
				c12.929-6.457,25.711-13.72,37.828-21.84c21.631-1.48,43.144-3.774,64.384-7.301c28.982,2.739,58.409,1.84,86.994-1.599
				c15.514-1.866,31.842-4.883,47.238-10.105C2179.248,959.697,2178.912,973.281,2175.588,986.176z M1997.657,1096.969
				c2.753,28.577-18.132,57.055-39.765,79.37c-5.642-19.364-7.384-39.378,0.788-58.065c7.192-16.453,19.579-28.269,34.234-36.937
				C1995.411,1085.945,1997.092,1091.105,1997.657,1096.969z M1447.763,788.885c3.63-5.251,7.492-10.451,11.463-15.621
				c32.098-19.082,66.469-34.545,101.35-47.529c35.162-13.09,76.582-29.322,114.54-28.198c13.293,0.393,23.075,3.382,30.184,8.193
				c-0.629-0.245-1.235-0.533-1.868-0.77c-44.977-16.759-87.488,3.291-120.248,34.642c-32.826,31.416-59.843,71.12-83.447,109.707
				c-2.656,4.34-5.236,8.739-7.808,13.142c-20.748-14.875-40.879-32.475-56.61-52.942
				C1439.493,801.585,1443.897,794.479,1447.763,788.885z M2042.543,854.421c-1.277-16.619-3.256-33.261-4.173-49.822
				c-0.009-0.148-0.007-0.294-0.016-0.442c0.949,3.303,1.851,6.624,2.58,10.008C2044.008,828.409,2044.387,841.817,2042.543,854.421
				z M2016.559,911.027c-6.606-2.868-12.718-6.592-18.763-10.539c14.674-62.946-12.936-132.974-69.049-165.673
				c-5.309-26.455-14.831-51.637-30.151-73.633c5.977,2.702,11.923,5.542,17.81,8.666c42.331,22.466,83.639,56.386,107.4,99.324
				c-1.337,10.427-2.057,20.976-1.581,31.813c1.385,31.361,7.667,63.31,5.148,94.675
				C2024.164,900.973,2020.547,906.093,2016.559,911.027z M1860.49,1040.668c29.526,3.989,95.168,3.214,123.689,29.562
				c-20.722,12.514-37.326,30.282-43.376,55.794c-3.959,16.696-1.937,34.024,2.554,50.564c-3.935-3.73-7.773-7.533-11.496-11.395
				c-32.032-33.218-63.855-75.682-79.298-121.751c0.995-1.154,1.952-2.339,2.927-3.513
				C1857.157,1040.173,1858.816,1040.442,1860.49,1040.668z M1605.377,920.413c0.422-9.193,1.557-18.356,3.337-27.437
				c2.305-0.321,4.599-0.719,6.915-0.979c20.391-2.285,39.216,2.979,56.29,12.383c-2.422,11.099-4.083,22.235-4.612,33.239
				C1646.315,933.069,1625.633,927.394,1605.377,920.413z M1497.356,881.664c4.552,3.041,9.129,6.007,13.715,8.867
				c4.38,2.733,8.807,5.343,13.253,7.898c-12.867,3.221-26.46,6.135-39.692,7.277c1.838-3.66,3.693-7.288,5.574-10.857
				C1492.524,890.445,1494.942,886.054,1497.356,881.664z M1503.612,870.532c22.276-39.016,48.319-76.933,78.584-109.599
				c20.093-21.688,44.677-42.554,74.808-47.235c22.096-3.434,42.87,3.337,61.418,14.428c-3.474,4.801-6.824,9.687-10.029,14.658
				c-6.822,3.592-13.436,7.44-19.782,11.541c-46.36,29.957-77.715,75.643-90.391,125.927c-14.846,2.831-29.494,7.024-42.859,10.194
				c-3.972,0.942-8.198,2.035-12.596,3.192C1529.428,886.698,1516.363,879.024,1503.612,870.532z M1894.549,680.873
				c8.194,14.496,14.198,29.991,18.415,46.09c-50.345-21.466-109.846-19.424-162.848-1.884
				c7.878-18.514,20.576-34.855,37.334-46.862c20.186-14.461,45.963-24.404,72.565-31.415c3.975,1.176,7.934,2.436,11.877,3.785
				C1880.343,659.227,1887.978,669.246,1894.549,680.873z M1984.377,891.682c-3.114-1.979-6.286-3.9-9.583-5.673
				c-14.901-8.01-31.673-11.444-48.458-10.878c1.101-5.936,2.124-11.85,2.995-17.705c4.945-33.221,6.886-69.181,2.494-103.798
				c11.597,8.04,21.918,17.909,30.226,29.853C1983.195,813.875,1991.159,854.926,1984.377,891.682z M1837.105,936.475
				c-2.505,5.829-4.482,11.727-6.052,17.669c-29.86-0.314-59.744-1.754-89.33-4.829c-14.86-18.757-32.639-37.186-53.088-50.921
				c7.519-30.341,20.513-60.277,31.067-87.876c2.174-5.684,4.502-11.909,6.709-18.449c3.759,25.205,15.479,68.024,39.582,80.411
				c22.753,11.695,46.433-10.897,23.104-29.256c-8.157-6.418-19.774,5.042-11.529,11.528c8.282,5.759,5.199,5.333-9.25-1.278
				c-3.115-3.776-5.801-7.828-8.062-12.155c-4.092-7.29-7.468-15.311-10.375-23.125c-6.246-16.786-9.579-34.589-8.886-52.528
				c0.254-6.523,1.056-12.972,2.382-19.279c40.44,34.475,70.39,79.83,108.397,116.847c8.944,8.711,18.216,17.087,27.835,25.011
				C1860.891,899.016,1845.999,915.79,1837.105,936.475z M1720.779,751.816c-2.832,26.308-15.547,56.39-23.483,76.151
				c-5.203,12.958-10.585,26.721-15.351,40.872c-0.962-18.43,1.551-37.453,7.854-56.547c6.764-20.486,16.266-40.194,27.892-58.882
				C1718.719,752.877,1719.743,752.334,1720.779,751.816z M1669.613,887.479c-5.953-2.843-12.078-5.286-18.404-7.157
				c-12.354-3.654-25.611-3.793-38.987-2.237c3.013-10.668,6.965-21.159,11.919-31.343c15.865-32.62,40.456-59.32,69.912-79.285
				C1674.245,805.655,1663.76,847.139,1669.613,887.479z M1722.257,947.058c-4.562-0.593-9.114-1.24-13.657-1.919
				c-5.736-8.218-10.651-16.799-14.586-25.721C1704.288,927.765,1713.721,937.288,1722.257,947.058z M1735.005,962.638
				c6.592,8.575,12.691,17.448,18.494,26.501c-6.661-4.466-13.145-9.475-19.42-15.141c-4.619-4.169-8.862-8.551-12.901-13.041
				C1725.779,961.56,1730.389,962.119,1735.005,962.638z M1777.188,1002.439c-7.466-12.998-15.417-25.715-24.143-37.983
				c24.948,2.257,50.041,3.445,75.092,3.861c-2.014,13.616-1.888,27.391-0.068,41.104c-6.856,1.518-14.273,2.924-22.016,4.073
				C1796.198,1010.479,1786.564,1006.843,1777.188,1002.439z M1843.967,1005.581c-0.743-6.488-1.111-13.014-1.041-19.566
				c0.064-5.91,0.62-11.775,1.568-17.541c10.388,0.042,20.764-0.021,31.108-0.19c2.058-0.034,4.131-0.068,6.194-0.101
				c-4.837,10.626-10.241,21.137-16.218,31.293C1858.162,1001.75,1850.939,1003.775,1843.967,1005.581z M1853.096,954.188
				c-1.769,0.012-3.538,0.007-5.307,0.012c7.27-23.889,22.647-44.397,45.376-55.279c3.567,2.678,7.19,5.27,10.85,7.808
				c-1.057,3.748-2.137,7.465-3.256,11.123c-3.589,11.733-7.845,23.866-12.792,36.013
				C1876.293,954.009,1864.65,954.11,1853.096,954.188z M1917.084,915.372c15.197,9.511,31.174,17.744,48.027,24.287
				c-2.753,4.208-5.726,8.247-8.902,12.123c-17.233,0.94-34.498,1.508-51.717,1.83
				C1909.313,941.043,1913.519,928.249,1917.084,915.372z M1927.251,905.355c-2.188-1.332-4.336-2.714-6.482-4.1
				c0.831-3.424,1.592-6.843,2.344-10.261c20.492-1.422,39.265,5.203,56.896,16.906c0.082,0.053,0.159,0.105,0.239,0.158
				c-2.14,6.661-4.787,12.977-7.841,19C1956.84,921.345,1941.733,914.175,1927.251,905.355z M1911.501,876.677
				c-6.2,1.109-12.181,2.771-17.905,4.953c-30.307-24.264-56.735-53.338-81.74-82.94c-17.286-20.463-35.44-42.628-56.285-61.032
				c32.861-10.545,67.977-14.329,101.95-10.537c20.572,2.297,41.042,7.973,59.342,17.471
				C1924.565,787.61,1920.743,833.865,1911.501,876.677z M1595.01,895.165c-1.193,6.81-2.029,13.682-2.536,20.591
				c-10.622-3.998-21.115-8.38-31.461-13.172C1572.301,899.846,1583.614,897.263,1595.01,895.165z M1683.054,931.238
				c1.727,3.568,3.58,7.117,5.631,10.635c-2.053-0.37-4.096-0.773-6.145-1.163C1682.615,937.557,1682.79,934.399,1683.054,931.238z
				 M1699.272,957.755c2.605,3.477,5.327,6.933,8.296,10.341c17.843,20.477,38.579,35.535,61.281,46.668
				c0.296,0.527,0.583,1.06,0.875,1.589c-42.05,0.008-82.475-13.327-86.776-61.473
				C1688.374,955.898,1693.813,956.869,1699.272,957.755z M1805.764,1029.139c1.271,0.384,2.552,0.747,3.831,1.113
				c-5.192,1.287-10.335,2.486-15.413,3.601c-0.541-1.055-1.081-2.112-1.624-3.166
				C1796.968,1030.259,1801.375,1029.751,1805.764,1029.139z M1887.026,992.353c4.213-7.961,8.063-16.139,11.648-24.451
				c14.436-0.252,28.933-0.56,43.435-1.079c-1.394,1.302-2.808,2.587-4.248,3.846
				C1921.212,979.116,1903.936,986.326,1887.026,992.353z M1986.569,931.813c0.97-1.956,1.923-3.925,2.812-5.942
				c1.37-3.106,2.578-6.258,3.714-9.428c4.04,2.534,8.128,4.889,12.332,6.988c-3.595,3.626-7.349,7.159-11.306,10.557
				C1991.596,933.295,1989.075,932.578,1986.569,931.813z M2035.206,703.612c-1.875,13.735-4.698,27.104-7.248,40.46
				c-33.256-47.149-87.89-83.052-140.967-103.421c15.452-3.012,30.651-5.215,44.655-6.88c23.69-2.815,49.902-4.485,72.851,3.354
				C2035.28,647.64,2039.231,674.146,2035.206,703.612z M1830.482,624.769c-91.162-15.824-189.526,14.129-273.729,54.676
				c31.241-22.572,64.821-41.259,98.455-53.893c56.995-21.407,125.141-28.289,178.212-2.594
				C1832.439,623.559,1831.459,624.159,1830.482,624.769z M1512.869,715.111c62.079-34.687,129.852-59.613,198.574-73.72
				c34.008-6.981,67.741-8.5,100.733-4.5c-24.022,16.847-46.283,36.232-66.138,57.603c-5.523,5.943-10.865,12.136-16.024,18.502
				c-3.565-6.869-8.796-13.038-16.196-18.145c-33.634-23.21-84.065-5.447-119.145,5.412c-35.409,10.962-73.26,24.464-109.101,41.952
				C1494.231,732.911,1503.327,723.834,1512.869,715.111z M1485.603,873.544c-5.991,10.68-11.708,21.528-17.098,32.546
				c-10.238-0.496-19.923-2.54-28.43-7.01c-28.801-15.134-23.095-48.935-10.691-77.286
				C1445.194,841.657,1464.826,858.675,1485.603,873.544z M1478.673,917.937c4.779-0.237,9.502-0.651,14.034-1.198
				c16.256-1.958,32.233-5.462,48.151-9.273c16.63,8.609,33.673,16.06,51.04,22.518c-0.121,31.885,7.205,64.154,22.892,94.265
				c3.92,7.527,8.379,14.92,13.331,22.007c-61.733-4.603-122.448-19.737-180.356-45.618
				C1455.353,972.092,1466.273,944.076,1478.673,917.937z M1624.303,1011.794c-11.877-24.444-18.181-50.672-18.997-77.029
				c20.301,6.892,41.009,12.478,62.004,16.974c0.04,0.884,0.04,1.775,0.099,2.656c4.268,64.038,55.507,79.811,110.63,77.358
				c0.858,1.64,1.707,3.285,2.554,4.932c-1.116,0.22-2.243,0.45-3.35,0.663c-43.455,8.368-87.122,11.684-130.39,9.945
				C1638.04,1036.561,1630.479,1024.502,1624.303,1011.794z M1787.325,1050c3.655,7.372,7.256,14.776,10.812,22.208
				c-15.774,9.597-33.331,16.221-52.851,18.649c-33.585,4.177-62.223-8.16-84.733-28.979
				C1702.737,1062.536,1745.182,1058.501,1787.325,1050z M1800.881,1047.124c10.977-2.463,22.195-5.302,33.45-8.588
				c0.267,0.902,0.564,1.797,0.845,2.696c-7.911,8.663-16.472,16.548-25.718,23.383
				C1806.626,1058.769,1803.768,1052.939,1800.881,1047.124z M1820.241,1074.197c7.148-5.483,13.831-11.491,20.199-17.818
				c12.239,31.738,31.101,61.611,50.368,86.502c14.171,18.308,30.021,36.215,47.522,52.174c-0.977,0.877-1.97,1.778-2.913,2.616
				c-10.168,9.038-20.843,17.11-31.898,24.474c-8.377-9.08-16.288-18.595-23.423-28.523c-25.923-36.07-45.132-76.087-64.396-116.094
				C1817.231,1076.436,1818.755,1075.337,1820.241,1074.197z M2041.247,942.807c-9.674-1.027-19.258-2.497-28.729-4.429
				c3.002-2.863,5.867-5.825,8.655-8.837c2.404,0.643,4.861,1.195,7.415,1.592c4.23,0.659,8.529-1.022,9.76-5.542
				c2.265-8.305,3.645-16.656,4.453-25.037c10.64-18.497,16.95-39.195,16.963-62.203c0.013-26.382-7.018-51-18.966-73.498
				c3.686-24.308,10.095-48.12,11.749-73.098c3.619-54.7-37.639-75.609-86.665-76.097c-32.13-0.32-65.183,4.855-97.111,13.237
				c-2.455-2.002-4.954-3.903-7.49-5.72c22.115-11.571,44.979-20.832,67.833-27.357c11.666-3.33,24.151-6.318,36.854-8.257
				c37.862,9.736,74.336,23.644,107.103,46.237c4.232,2.917,8.47,5.945,12.704,9.023c13.558,26.437,20.435,57.201,26.816,85.133
				c8.476,37.104,16.476,73.295,30.223,108.865c6.93,17.927,15.717,38.155,22.87,59.076
				C2127.131,918.591,2086.283,935.081,2041.247,942.807z M1404.754,734.32c-4.455-60.625,28.256-113.115,82.096-138.969
				c127.992-61.463,285.409-43.058,420.19-20.063c8.154,1.391,16.297,2.882,24.412,4.485c-16.467,4.589-32.385,10.441-46.993,16.7
				c-12.51,5.36-24.754,11.414-36.682,18.068c-63.186-35.859-146.058-23.381-210.901,4.127
				c-48.65,20.639-97.35,53.063-138.518,91.659c-29.145,16.928-58.367,36.593-85.838,58.785
				C1408.422,758.127,1405.654,746.56,1404.754,734.32z M1417.31,780.445c15.548-12.917,31.746-25.099,48.555-36.462
				c-4.628,5.296-9.149,10.64-13.448,16.074c-11.838,6.992-23.245,14.528-34.073,22.655
				C1417.974,781.968,1417.667,781.194,1417.31,780.445z M1354.541,889.531c6.264-35.884,32.848-64.671,61.396-87.003
				c1.348,2.219,2.724,4.418,4.169,6.575c-12.501,25.13-19.917,54.534-7.499,80.078c9.857,20.278,29.562,27.301,50.24,28.679
				c-11.171,24.152-20.699,49.043-27.938,74.565c-0.192,0.677-0.368,1.364-0.556,2.042
				C1392.191,974.056,1345.319,942.356,1354.541,889.531z M1813.629,1263.318c-102.268,29.853-231.577,26.428-315.862-46.445
				c-62.662-54.177-69.901-129.372-53.347-202.634c3.291,1.436,6.564,2.848,9.78,4.214c59.777,25.411,122.279,39.408,185.585,42.725
				c19.782,22.765,45.433,40.109,75.997,44.082c30.804,4.005,61.991-4.48,88.467-20.253c20.025,42.114,40.003,84.242,68.105,121.409
				c5.51,7.286,11.785,15.42,18.686,23.647C1867.025,1244.377,1841.164,1255.281,1813.629,1263.318z M1965.159,1230.995
				c4.37,9.14,13.007,20.568,15.557,30.242c8.193,31.115-46.722-9.559-53.674-15.825c-4.484-4.042-8.888-8.229-13.21-12.526
				c12.612-8.401,24.601-17.71,35.844-27.954c1.829,1.513,3.67,3.007,5.534,4.472
				C1958.371,1216.671,1961.743,1223.85,1965.159,1230.995z M2202.268,1095.21c-11.341,62.919-32.892,128.852-104.526,141.252
				c-49.884,8.635-95.384-11.557-133.343-41.594c-0.417-1.032-0.825-2.068-1.229-3.107c8.794-9.152,17.091-18.879,24.672-29.355
				c16.053-22.183,31.741-52.455,21.639-80.368c-0.952-2.631-2.117-5.078-3.401-7.422c7.865-3.487,16.077-6.318,24.295-8.624
				c44.668-12.534,101.807-10.283,138.531-42.347c23.878-20.848,26.136-52.348,21.461-82.696c5.854-2.61,11.502-5.586,16.784-9.078
				C2218.574,984.839,2211.333,1044.912,2202.268,1095.21z M2205.861,880.045c-1.831-3.626-7.459-5.155-10.832-2.841
				c-5.916,4.06-11.875,7.981-17.889,11.753c-13.004-39.954-30.762-78.069-40.431-119.131
				c-7.484-31.774-13.92-72.513-27.156-108.829c34.868,28.094,67.752,61.195,91.374,97.293
				c25.819,39.455,48.806,104.915,15.161,146.101C2213.19,896.015,2209.817,887.871,2205.861,880.045z"/>
		</g>
		<g>
			
				<linearGradient id="SVGID_00000096036017570407005490000000895632634765205661_" gradientUnits="userSpaceOnUse" x1="1832.9115" y1="2652.7327" x2="2001.397" y2="2960.0803">
				<stop  offset="0" style="stop-color:#FFC444"/>
				<stop  offset="0.9964" style="stop-color:#F36F56"/>
			</linearGradient>
			<path style="fill:url(#SVGID_00000096036017570407005490000000895632634765205661_);" d="M1728.165,2853.534
				c-20.423-21.227-45.505-58.175-34.996-74.853c9.33-14.807,40.912-4.423,57.354-26.247c9.565-12.695,2.281-20.725,9.721-34.996
				c18.425-35.34,95.627-48.488,128.318-19.442c12.938,11.495,12.468,23.879,25.275,27.219c18.806,4.904,27.733-19.736,55.41-22.358
				c22.594-2.141,24.846,13.502,60.271,18.47c26.546,3.723,32.643-4.029,49.578,2.916c22.632,9.282,33.176,31.917,35.968,37.912
				c17.332,37.207,3.851,83.938-12.637,108.876C2042.307,2961.964,1819.607,2948.578,1728.165,2853.534z"/>
			
				<linearGradient id="SVGID_00000089569883640861787120000018356773137938308012_" gradientUnits="userSpaceOnUse" x1="1899.5759" y1="2703.8838" x2="1744.9497" y2="2855.6379">
				<stop  offset="0" style="stop-color:#FFC444"/>
				<stop  offset="0.9964" style="stop-color:#F36F56"/>
			</linearGradient>
			<path style="fill:url(#SVGID_00000089569883640861787120000018356773137938308012_);" d="M1803.99,2731.047
				c-11.857,8.926-7.274,20.089-21.387,32.08c-16.551,14.063-31.632,6.167-40.828,17.498c-10.784,13.288-4.976,42.543,10.693,57.354
				c26.301,24.861,84.911,13.305,110.82-21.386c12.354-16.541,26.915-51.253,7.777-74.853
				C1854.556,2721.383,1820.52,2718.604,1803.99,2731.047z"/>
			
				<linearGradient id="SVGID_00000149352856700947491790000011896330366261774220_" gradientUnits="userSpaceOnUse" x1="1949.9786" y1="2689.3557" x2="1889.4944" y2="2748.7166">
				<stop  offset="0" style="stop-color:#FFC444"/>
				<stop  offset="0.9964" style="stop-color:#F36F56"/>
			</linearGradient>
			<path style="fill:url(#SVGID_00000149352856700947491790000011896330366261774220_);" d="M1950.778,2728.131
				c2.79-13.823-14.878-30.689-33.052-32.08c-18.764-1.435-38.579,13.591-37.912,27.219c0.711,14.523,24.609,25.967,43.745,23.331
				C1933.15,2745.28,1948.491,2739.465,1950.778,2728.131z"/>
			
				<linearGradient id="SVGID_00000179641622708934169230000002682057282782740874_" gradientUnits="userSpaceOnUse" x1="2075.9414" y1="2705.8027" x2="1968.1906" y2="2811.552">
				<stop  offset="0" style="stop-color:#FFC444"/>
				<stop  offset="0.9964" style="stop-color:#F36F56"/>
			</linearGradient>
			<path style="fill:url(#SVGID_00000179641622708934169230000002682057282782740874_);" d="M2003.272,2735.908
				c-24.03-2.377-53.661,14.731-53.466,32.08c0.163,14.498,21.122,26.083,34.996,30.136c22.597,6.601,42.517-2.072,69.02-13.61
				c12.24-5.328,33.362-14.524,32.08-21.386c-1.195-6.395-20.38-2.919-51.522-14.582
				C2015.195,2741.361,2014.369,2737.006,2003.272,2735.908z"/>
			<g>
				<g>
					
						<linearGradient id="SVGID_00000058573400966933005030000009304813638765303995_" gradientUnits="userSpaceOnUse" x1="2153.7083" y1="2778.5928" x2="1738.9738" y2="2830.4346">
						<stop  offset="0" style="stop-color:#D8DEE8"/>
						<stop  offset="1" style="stop-color:#FFFFFF"/>
					</linearGradient>
					<path style="fill:url(#SVGID_00000058573400966933005030000009304813638765303995_);" d="M2134.193,2814.649
						c0,24.753-101.754,25.619-227.274,25.619c-125.52,0-227.274-0.866-227.274-25.619c0-24.753,101.754-44.819,227.274-44.819
						C2032.439,2769.83,2134.193,2789.896,2134.193,2814.649z"/>
					
						<linearGradient id="SVGID_00000070115098613133464640000001646291281368556953_" gradientUnits="userSpaceOnUse" x1="2156.2307" y1="2798.7751" x2="1741.496" y2="2850.6169">
						<stop  offset="0" style="stop-color:#D8DEE8"/>
						<stop  offset="1" style="stop-color:#FFFFFF"/>
					</linearGradient>
					<path style="fill:url(#SVGID_00000070115098613133464640000001646291281368556953_);" d="M1679.836,2814.649
						c0,0-10.571,29.001-10.571,29.424c0,0.423,473.979,0,473.979,0l-8.879-29.424H1679.836z"/>
				</g>
				<ellipse style="fill:#D8DEE8;" cx="1906.255" cy="2844.285" rx="236.923" ry="46.721"/>
				
					<linearGradient id="SVGID_00000078746078494255467570000013248892291875278261_" gradientUnits="userSpaceOnUse" x1="1691.8864" y1="3048.9338" x2="2120.6235" y2="3048.9338">
					<stop  offset="0" style="stop-color:#FF9085"/>
					<stop  offset="1" style="stop-color:#FB6FBB"/>
				</linearGradient>
				<path style="fill:url(#SVGID_00000078746078494255467570000013248892291875278261_);" d="M2120.49,2844.497
					c0-21.951-95.916-39.745-214.235-39.745c-118.319,0-214.235,17.794-214.235,39.745h-0.133l43.55,397.882
					c0,28.022,76.478,50.738,170.818,50.738c94.341,0,170.818-22.716,170.818-50.738l43.55-397.882H2120.49z"/>
				<g>
					
						<linearGradient id="SVGID_00000128487259913765553500000014176427054516294577_" gradientUnits="userSpaceOnUse" x1="1764.7253" y1="3293.8232" x2="2029.059" y2="2789.6643">
						<stop  offset="0" style="stop-color:#D8DEE8"/>
						<stop  offset="1" style="stop-color:#FFFFFF"/>
					</linearGradient>
					<path style="fill:url(#SVGID_00000128487259913765553500000014176427054516294577_);" d="M1906.255,2804.751
						c-18.495,0-36.443,0.435-53.562,1.252l29.236,486.598c7.947,0.336,16.066,0.514,24.326,0.514
						c9.179,0,18.185-0.218,26.971-0.632l29.221-486.348C1944.538,2805.235,1925.702,2804.751,1906.255,2804.751z"/>
					
						<linearGradient id="SVGID_00000077325646196495055370000012156905624409951399_" gradientUnits="userSpaceOnUse" x1="1800.8196" y1="3089.8901" x2="1718.1198" y2="2958.4343">
						<stop  offset="0" style="stop-color:#D8DEE8"/>
						<stop  offset="1" style="stop-color:#FFFFFF"/>
					</linearGradient>
					<path style="fill:url(#SVGID_00000077325646196495055370000012156905624409951399_);" d="M1717.961,2825.524l47.165,445.443
						c13.54,5.885,31.143,10.88,51.611,14.628l-40.553-472.679C1752.328,2816.303,1732.414,2820.598,1717.961,2825.524z"/>
					
						<linearGradient id="SVGID_00000165939715970899163990000012089743232236722351_" gradientUnits="userSpaceOnUse" x1="1691.8864" y1="3049.1936" x2="2120.624" y2="3049.1936">
						<stop  offset="0" style="stop-color:#D8DEE8"/>
						<stop  offset="1" style="stop-color:#FFFFFF"/>
					</linearGradient>
					<path style="fill:url(#SVGID_00000165939715970899163990000012089743232236722351_);" d="M2038.932,2813.29l-40.478,471.807
						c20.732-3.956,38.397-9.206,51.699-15.368l46.939-443.312C2082.976,2821.299,2063.051,2816.824,2038.932,2813.29z"/>
				</g>
				<g style="opacity:0.3;">
					
						<linearGradient id="SVGID_00000085956936312735778440000006631609746672696974_" gradientUnits="userSpaceOnUse" x1="2230.9968" y1="2740.4036" x2="1736.6066" y2="3225.6106">
						<stop  offset="0" style="stop-color:#FF9085"/>
						<stop  offset="1" style="stop-color:#FB6FBB"/>
					</linearGradient>
					<path style="fill:url(#SVGID_00000085956936312735778440000006631609746672696974_);" d="M2120.49,2844.497
						c0-21.951-95.916-39.745-214.235-39.745c-41.076,0-79.45,2.145-112.05,5.864c-5.064,15.357-7.777,31.654-6.953,48.68
						c4.722,97.617,121.218,130.216,161.517,222.402c24.564,56.193,25.512,62.84-67.106,210.896
						c8.031,0.344,16.241,0.523,24.592,0.523c94.34,0,170.818-22.716,170.818-50.738l43.55-397.882H2120.49z"/>
				</g>
			</g>
		</g>
		<g>
			
				<linearGradient id="SVGID_00000107562697109847083170000017430573680691343261_" gradientUnits="userSpaceOnUse" x1="1102.457" y1="1852.224" x2="888.8355" y2="2229.6221">
				<stop  offset="0" style="stop-color:#AA80F9"/>
				<stop  offset="0.9964" style="stop-color:#6165D7"/>
			</linearGradient>
			<path style="fill:url(#SVGID_00000107562697109847083170000017430573680691343261_);" d="M594.633,1662.026
				c-95.222,52.799-45.294,411.869,135.033,671.322c139.233,200.329,400.337,404.765,520.466,334.636
				c106.176-61.983,83.828-327.711,6.728-500.388c-79.237-177.463-221.625-268.563-453.737-417.07
				C689.19,1677.632,631.469,1641.601,594.633,1662.026z"/>
			<g style="opacity:0.3;">
				
					<linearGradient id="SVGID_00000014612644100083613230000002649685179931499962_" gradientUnits="userSpaceOnUse" x1="1102.4543" y1="1852.2224" x2="888.8326" y2="2229.6208">
					<stop  offset="0" style="stop-color:#AA80F9"/>
					<stop  offset="0.9964" style="stop-color:#6165D7"/>
				</linearGradient>
				<path style="fill:url(#SVGID_00000014612644100083613230000002649685179931499962_);" d="M939,2117.752
					c-162.845-184.001-267.39-187.517-313.312-323.993c-15.568-46.266-19.297-92.681-15.952-136.812
					c-5.417,0.815-10.431,2.488-15.102,5.079c-95.222,52.799-45.293,411.869,135.033,671.322
					c139.233,200.329,400.337,404.765,520.466,334.636c42.592-24.864,64.486-82.53,70.477-153.809
					c-46.121-9.615-83.724-25.567-114.583-43.948C1080.816,2395.65,1103.993,2304.181,939,2117.752z"/>
			</g>
		</g>
		<g>
			
				<linearGradient id="SVGID_00000068672252244936342000000007324964107560311938_" gradientUnits="userSpaceOnUse" x1="2729.179" y1="2520.7749" x2="2871.5994" y2="2520.7749">
				<stop  offset="0" style="stop-color:#311944"/>
				<stop  offset="1" style="stop-color:#A03976"/>
			</linearGradient>
			<path style="fill:url(#SVGID_00000068672252244936342000000007324964107560311938_);" d="M2753.477,2474.488
				c0,0,91.502,13.542,115.237,70.508c23.735,56.966-106.025-12.74-131.34-26.545
				C2712.058,2504.645,2753.477,2474.488,2753.477,2474.488z"/>
			
				<linearGradient id="SVGID_00000101094361300763276820000008837859459332374921_" gradientUnits="userSpaceOnUse" x1="3011.7666" y1="1872.8717" x2="2296.1711" y2="2332.1348">
				<stop  offset="0" style="stop-color:#444B8C"/>
				<stop  offset="0.9964" style="stop-color:#26264F"/>
			</linearGradient>
			<path style="fill:url(#SVGID_00000101094361300763276820000008837859459332374921_);" d="M2085.435,2053.666
				c65.741-84.587,169.701-185.705,319.813-237.707c65.789-22.791,116.106-40.221,172.151-21.797
				c136.563,44.895,174.157,258.965,193.544,369.362c12.762,72.666,23.97,187.822-1.304,331.629
				c-15.238-1.583-30.475-3.167-45.713-4.75c-38.489-33.028-88.392-84.996-122.342-160.21
				c-50.808-112.56-35.352-209.518-67.544-217.188c-16.866-4.019-46.877,16.456-104.438,130.546
				C2314.88,2180.256,2200.158,2116.961,2085.435,2053.666z"/>
			
				<linearGradient id="SVGID_00000134248094727891751450000000995853736918617767_" gradientUnits="userSpaceOnUse" x1="2705.2268" y1="3325.1846" x2="3030.9836" y2="2759.1155">
				<stop  offset="0" style="stop-color:#311944"/>
				<stop  offset="1" style="stop-color:#A03976"/>
			</linearGradient>
			<path style="fill:url(#SVGID_00000134248094727891751450000000995853736918617767_);" d="M2943.875,2840.401
				c0,0,57.76,69.613,60.133,111.405c2.373,41.794-98.576-46.253-111.399-65.347c-12.821-19.095,8.542-52.832,8.542-52.832
				L2943.875,2840.401z"/>
			
				<linearGradient id="SVGID_00000024709433272176998040000002234443262500059026_" gradientUnits="userSpaceOnUse" x1="1726.4879" y1="2428.5117" x2="2966.6028" y2="2428.5117">
				<stop  offset="0" style="stop-color:#444B8C"/>
				<stop  offset="0.9964" style="stop-color:#26264F"/>
			</linearGradient>
			<path style="fill:url(#SVGID_00000024709433272176998040000002234443262500059026_);" d="M2159.015,2003.821
				c92.065,46.746,221.439,118.53,367.308,221.458c69.549,49.075,124.446,87.811,176.241,136.952
				c75.849,71.962,200.352,218.71,264.038,490.972c-21.817-6.525-43.635-13.051-65.452-19.575
				c-186.851-251.632-350.035-315.892-469.173-324.236c-99.566-6.973-154.679,26.066-356.036,28.483
				c-172.903,2.075-315.575,3.787-344.169-54.592C1705.229,2429.093,1768.414,2305.639,2159.015,2003.821z"/>
			
				<linearGradient id="SVGID_00000078754848761069297320000003508535454622462394_" gradientUnits="userSpaceOnUse" x1="1638.8502" y1="1651.373" x2="1685.1349" y2="1932.6409">
				<stop  offset="0" style="stop-color:#FFC444"/>
				<stop  offset="0.9964" style="stop-color:#F36F56"/>
			</linearGradient>
			<path style="fill:url(#SVGID_00000078754848761069297320000003508535454622462394_);" d="M1802.979,2020.436
				c14.758-42.265-62.377-116.867-139.827-129.817c-15.872-2.654-50.32-8.414-69.159,10.927
				c-27.836,28.578-10.718,100.783,30.969,135.504C1682.882,2085.292,1788.637,2061.51,1802.979,2020.436z"/>
			
				<linearGradient id="SVGID_00000039122905587558909610000008232177514990894512_" gradientUnits="userSpaceOnUse" x1="1484.5347" y1="2866.1975" x2="1561.0825" y2="3099.4016">
				<stop  offset="0" style="stop-color:#311944"/>
				<stop  offset="1" style="stop-color:#A03976"/>
			</linearGradient>
			<path style="fill:url(#SVGID_00000039122905587558909610000008232177514990894512_);" d="M1561.841,2969.667
				c27.076,14.825,25.496,71.7,15.57,108.688c-10.875,40.525-37.649,79.089-48.804,75.475c-7.452-2.414-6.964-23.334-6.549-41.161
				c0.986-42.304,13.784-48.211,14.044-82.558c0.256-33.746-11.919-51.905-1.403-60.713
				C1541.459,2963.736,1553.692,2965.205,1561.841,2969.667z"/>
			<g>
				
					<linearGradient id="SVGID_00000005253484998351529920000015091175838102704563_" gradientUnits="userSpaceOnUse" x1="1368.8953" y1="2061.6416" x2="2323.0703" y2="2570.7729">
					<stop  offset="0" style="stop-color:#FFC444"/>
					<stop  offset="0.9964" style="stop-color:#F36F56"/>
				</linearGradient>
				<path style="fill:url(#SVGID_00000005253484998351529920000015091175838102704563_);" d="M1121.765,1977.712
					c27.289-0.292,47.583,13.685,52.218,16.614c79.129,50.028,429.254-62.575,652.733-78.328
					c194.919-13.74,409.557,38.016,421.13,109.717c8.793,54.476-106.932,75.252-227.202,231.629
					c-100.497,130.667-68.16,179.177-149.04,258.389c-108.089,105.859-297.408,148.078-460.265,93.348
					c-153.219-51.491-224.98-169.294-289.575-275.334c-7.319-12.016-143.908-240.108-75.955-318.059
					C1054.242,2006.016,1083.724,1978.119,1121.765,1977.712z"/>
				
					<linearGradient id="SVGID_00000152239690040357246860000000362410425745584800_" gradientUnits="userSpaceOnUse" x1="1064.8673" y1="2399.0303" x2="2105.7559" y2="2399.0303">
					<stop  offset="0" style="stop-color:#FFC444"/>
					<stop  offset="0.9964" style="stop-color:#F36F56"/>
				</linearGradient>
				<path style="opacity:0.3;fill:url(#SVGID_00000152239690040357246860000000362410425745584800_);" d="M1980.997,2198.454
					c-92.778,61.901-74.317,173.859-154.281,204.127c-81.614,30.892-127.267-75.733-287.203-104.437
					c-160.694-28.84-221.782,59.564-344.167,18.988c-38.175-12.657-84.362-38.541-130.478-94.945
					c24.98,58.388,53.652,106.231,56.898,111.56c64.594,106.04,136.356,223.843,289.575,275.334
					c162.857,54.73,352.177,12.511,460.265-93.348c80.88-79.212,48.543-127.722,149.04-258.389
					c29.218-37.99,58.15-67.927,85.111-92.338C2062.472,2164.682,2018.738,2173.274,1980.997,2198.454z"/>
			</g>
			
				<linearGradient id="SVGID_00000008843081818710519010000004574012044238099073_" gradientUnits="userSpaceOnUse" x1="814.7905" y1="-75.385" x2="673.9598" y2="343.4016" gradientTransform="matrix(0.7437 -0.6685 0.6685 0.7437 305.8639 2020.0854)">
				<stop  offset="0" style="stop-color:#444B8C"/>
				<stop  offset="0.9964" style="stop-color:#26264F"/>
			</linearGradient>
			<path style="fill:url(#SVGID_00000008843081818710519010000004574012044238099073_);" d="M1160.75,1872.438
				c5.881-8.747,39.84-61.38,22.134-116.062c-15.86-48.98-69.417-88.011-104.478-78.256c-20.121,5.599-17.951,22.76-55.738,55.114
				c-23.085,19.766-27.249,16.233-63.436,41.932c-44.059,31.29-66.087,46.935-72.311,72.163
				c-8.39,34.016,12.832,67.198,15.816,72.054c6.629,10.786,17.997,23.612,42.41,47.584c21.668,21.273,20.364,20.655,26.932,26.79
				c15.782,14.73,45.426,38.937,96.058,63.917c0.097-12.956,1.05-29.188,4.372-47.329c1.278-6.977,6.58-34.322,18.572-58.777
				C1112.573,1907.743,1136.207,1908.944,1160.75,1872.438z"/>
			
				<linearGradient id="SVGID_00000122710054400358999570000012520655424000003205_" gradientUnits="userSpaceOnUse" x1="3551.873" y1="100.8654" x2="3451.79" y2="351.0733" gradientTransform="matrix(-0.7437 0.6685 0.6685 0.7437 3302.2856 -671.9171)">
				<stop  offset="0" style="stop-color:#311944"/>
				<stop  offset="1" style="stop-color:#A03976"/>
			</linearGradient>
			<path style="fill:url(#SVGID_00000122710054400358999570000012520655424000003205_);" d="M1005.276,2035.613
				c0,0,61.73,67.57,142.247,34.303c159.974-66.096,44.655-145.752-11.163-219.963c-12.431-16.527-52.484-5.613-77.045,7.942
				c-14.505,8.005-18.243,15.696-42.198,28.32c-22.095,11.639-29.362,10.595-35.056,18.247c-7.128,9.568-9.32,29.435,17.205,75.617
				c-17.898-11.238-36.575-12.769-47.499-4.074c-1.745,1.389-6.116,6.153-7.779,12.203
				C937.963,2010.113,961.516,2030.728,1005.276,2035.613z"/>
			
				<linearGradient id="SVGID_00000156577063212253832430000010904407934435872692_" gradientUnits="userSpaceOnUse" x1="1149.9998" y1="2471.8796" x2="2104.1782" y2="2981.0125">
				<stop  offset="0" style="stop-color:#FFC444"/>
				<stop  offset="0.9964" style="stop-color:#F36F56"/>
			</linearGradient>
			<path style="fill:url(#SVGID_00000156577063212253832430000010904407934435872692_);" d="M1041.063,2096.39
				c50.787-30.281,248.086,178.79,369.003,380.23c120.214,200.268,165.197,393.437,184.04,524.101
				c-24.792,0.645-49.583,1.292-74.375,1.937c-7.209-23.12-20.163-59.454-42.637-100.507
				c-82.448-150.606-173.802-146.938-279.375-274.081c-101.378-122.091-127.35-258.201-151.908-386.892
				C1029.678,2156.633,1020.519,2108.638,1041.063,2096.39z"/>
			<g>
				
					<linearGradient id="SVGID_00000121988174962474093540000007854402503758091173_" gradientUnits="userSpaceOnUse" x1="1505.7333" y1="1740.5067" x2="1593.524" y2="1740.5067">
					<stop  offset="0" style="stop-color:#311944"/>
					<stop  offset="1" style="stop-color:#A03976"/>
				</linearGradient>
				<path style="fill:url(#SVGID_00000121988174962474093540000007854402503758091173_);" d="M1589.729,1785.483
					c-1.907,0-3.549-1.437-3.762-3.377l-6.82-62.177l-3.526,1.738c-1.173,0.578-2.567,0.51-3.677-0.181
					c-1.111-0.691-1.787-1.908-1.787-3.218v-1.791l-2.604,1.135c-0.78,0.341-1.651,0.409-2.476,0.193l-56.512-14.819
					c-2.024-0.531-3.236-2.602-2.705-4.626c0.532-2.024,2.604-3.234,4.627-2.704l55.241,14.485l6.704-2.924
					c1.169-0.512,2.52-0.398,3.591,0.303c1.069,0.7,1.713,1.892,1.713,3.17v1.487l2.915-1.435c1.111-0.547,2.415-0.518,3.498,0.077
					c1.083,0.595,1.808,1.68,1.944,2.909l7.41,67.553c0.228,2.08-1.274,3.952-3.354,4.18
					C1590.007,1785.475,1589.867,1785.483,1589.729,1785.483z"/>
				<g>
					
						<linearGradient id="SVGID_00000037683737108347220630000012081140723682376346_" gradientUnits="userSpaceOnUse" x1="1707.213" y1="1730.4692" x2="1549.8669" y2="1750.1375">
						<stop  offset="0" style="stop-color:#D8DEE8"/>
						<stop  offset="1" style="stop-color:#FFFFFF"/>
					</linearGradient>
					<path style="fill:url(#SVGID_00000037683737108347220630000012081140723682376346_);" d="M1699.809,1744.148
						c0,9.391-38.604,9.72-86.225,9.72c-47.621,0-86.226-0.329-86.226-9.72c0-9.39,38.605-17.004,86.226-17.004
						C1661.205,1727.145,1699.809,1734.758,1699.809,1744.148z"/>
					
						<linearGradient id="SVGID_00000168100910335724059520000006405367525345749420_" gradientUnits="userSpaceOnUse" x1="1708.17" y1="1738.1261" x2="1550.824" y2="1757.7943">
						<stop  offset="0" style="stop-color:#D8DEE8"/>
						<stop  offset="1" style="stop-color:#FFFFFF"/>
					</linearGradient>
					<path style="fill:url(#SVGID_00000168100910335724059520000006405367525345749420_);" d="M1527.431,1744.148
						c0,0-4.01,11.003-4.01,11.163c0,0.161,179.823,0,179.823,0l-3.368-11.163H1527.431z"/>
				</g>
				<path style="fill:#D8DEE8;" d="M1703.218,1755.392c0,9.79-40.243,17.725-89.885,17.725c-49.643,0-89.886-7.936-89.886-17.725
					c0-9.79,40.243-17.726,89.886-17.726C1662.974,1737.667,1703.218,1745.603,1703.218,1755.392z"/>
				
					<linearGradient id="SVGID_00000052788861744572683020000000261865182436142989_" gradientUnits="userSpaceOnUse" x1="1619.6284" y1="1808.4556" x2="1561.5236" y2="2023.1907">
					<stop  offset="0" style="stop-color:#FF9085"/>
					<stop  offset="1" style="stop-color:#FB6FBB"/>
				</linearGradient>
				<path style="fill:url(#SVGID_00000052788861744572683020000000261865182436142989_);" d="M1694.61,1755.473
					c0-8.328-36.39-15.079-81.278-15.079c-44.889,0-81.279,6.751-81.279,15.079h-0.051l16.522,212.98
					c0,10.631,29.015,19.249,64.807,19.249c35.792,0,64.807-8.618,64.807-19.249l16.522-212.98H1694.61z"/>
				<g style="opacity:0.3;">
					
						<linearGradient id="SVGID_00000031169753302404747780000011653831866482702778_" gradientUnits="userSpaceOnUse" x1="1761.5448" y1="1722.4496" x2="1529.8596" y2="1949.8313">
						<stop  offset="0" style="stop-color:#FF9085"/>
						<stop  offset="1" style="stop-color:#FB6FBB"/>
					</linearGradient>
					<path style="fill:url(#SVGID_00000031169753302404747780000011653831866482702778_);" d="M1694.61,1755.473
						c0-8.328-36.39-15.079-81.278-15.079c-15.584,0-30.143,0.813-42.511,2.224c-1.922,5.827-2.95,12.009-2.638,18.469
						c1.792,37.035,45.989,49.403,61.278,84.377c9.32,21.319,9.679,85.868-25.459,142.039c3.047,0.131,6.161,0.198,9.33,0.198
						c35.792,0,64.807-8.618,64.807-19.249l16.522-212.98H1694.61z"/>
				</g>
			</g>
			
				<linearGradient id="SVGID_00000046303905737404262780000015405651095550618257_" gradientUnits="userSpaceOnUse" x1="1640.1084" y1="1887.7144" x2="1698.4232" y2="1887.7144">
				<stop  offset="0" style="stop-color:#311944"/>
				<stop  offset="1" style="stop-color:#A03976"/>
			</linearGradient>
			<path style="fill:url(#SVGID_00000046303905737404262780000015405651095550618257_);" d="M1697.949,1886.768
				c0,0,7.575-17.773-37.82-33.602s-0.828,26.612,9.399,49.834C1679.756,1926.223,1690.261,1945.727,1697.949,1886.768z"/>
		</g>
	</g>
</g>
</svg>
